<?xml version="1.0" encoding="UTF-8" standalone="no"?>
<!-- Created with Inkscape (http://www.inkscape.org/) -->

<svg
   xmlns:dc="http://purl.org/dc/elements/1.1/"
   xmlns:cc="http://creativecommons.org/ns#"
   xmlns:rdf="http://www.w3.org/1999/02/22-rdf-syntax-ns#"
   xmlns:svg="http://www.w3.org/2000/svg"
   xmlns="http://www.w3.org/2000/svg"
   xmlns:sodipodi="http://sodipodi.sourceforge.net/DTD/sodipodi-0.dtd"
   xmlns:inkscape="http://www.inkscape.org/namespaces/inkscape"
   width="210mm"
   height="297mm"
   viewBox="0 0 744.09448819 1052.3622047"
   id="svg2"
   version="1.1"
   inkscape:version="0.91 r13725"
   sodipodi:docname="LevelSVG.svg">
  <defs
     id="defs4" />
  <sodipodi:namedview
     id="base"
     pagecolor="#ffffff"
     bordercolor="#666666"
     borderopacity="1.0"
     inkscape:pageopacity="0.0"
     inkscape:pageshadow="2"
     inkscape:zoom="0.99280555"
     inkscape:cx="1986.3238"
     inkscape:cy="407.17755"
     inkscape:document-units="px"
     inkscape:current-layer="layer1"
     showgrid="true"
     inkscape:window-width="692"
     inkscape:window-height="783"
     inkscape:window-x="2"
     inkscape:window-y="1"
     inkscape:window-maximized="0">
    <inkscape:grid
       type="xygrid"
       id="grid3334"
       spacingx="5.3"
       spacingy="5.2000001" />
  </sodipodi:namedview>
  <metadata
     id="metadata7">
    <rdf:RDF>
      <cc:Work
         rdf:about="">
        <dc:format>image/svg+xml</dc:format>
        <dc:type
           rdf:resource="http://purl.org/dc/dcmitype/StillImage" />
        <dc:title />
      </cc:Work>
    </rdf:RDF>
  </metadata>
  <g
     inkscape:label="Layer 1"
     inkscape:groupmode="layer"
     id="layer1">
    <path
       style="fill:#000000"
       d="m 3196.8334,-2.3244858 -716.3418,0.2851 2.3477,318.6953358 -189,0 0,51.5 132.75,0.0195 2.3789,45.80469 53.539,2.00586 1.3868,99.66797 -45.0547,0 2.291,88 242.709,2.45898 2,94.54102 40.2871,0 1.8711,96.33398 142.4902,0.33789 2.3516,50.32813 48.9629,2.0791 0.8128,42.7576 47.5181,0.71029 -0.9716,91.19919 47.6778,1.61905 -1.0098,1107.5937 -46.9902,-1.3339 0,104.375 138.0058,-0.2578 0,57.375 -157.9902,-1.0762 -1.0098,43.959 -93,0 0,-88 -53,0 -2.0039,87 -163.166,0 0.3086,-91.25 -140.1426,-1.75 0,-94 -286.3397,-2.1584 1.3211,-44.0114 -48.9814,-1.8302 -3,134 -124,0 -1,-90 -295,0 2.209,92.2637 198.791,0.5351 0,51.0156 -279.7031,0.2364 -1.4571,-85.0508 -192.8398,0 0,-50 -46,0 0,-52 -195.9434,0.6093 -1.0566,193.3907 -92.3184,-0.3223 0,47.1777 -52.2148,1.4375 0.6934,-100.2929 -94.16019,0 0,51 -191.471,0 0.31064,-95.3302 -51.83965,0.297 -1.14258,137.1758 -126.85742,1.3574 0.5,-91.5 49.5,0 0,-44 -48.67969,-0.7852 -0.82031,-138.2168 46.64258,-1.6445 2.85742,-47.3575 -48.50586,-1.3632 -2.08399,-51.7813 -95.41015,-0.8555 0,-49 -93.96485,0 -0.53515,-49.5 -150.49052,-0.028 0.99052,-91.3133 48.67931,-1.6638 -0.83018,-48.895 103.49052,0.2224 0,48.3519 -47.99785,0.8302 -0.14629,47.0863 94.23769,-0.5195 0.5668,-45.3657 44.83203,-0.1211 -0.15829,-53.063 145.33017,-0.8302 0,-49.1888 -48,0 0,-43 -89.5,0 0.34365,-63.6762 85.22212,0.2398 -1.11591,-13.0431 55.05014,0.4795 0,-46 -48,0 -0.50948,-75.4981 -95.49052,-1.373 0,-141.8063 -96,0 0,-48.3207 -44.87891,0 -0.62109,45.002 -95.5,0 -0.0957,-140 43.66602,-0.5703 1.42773,43.4194 98.16983,-0.8301 0.83017,-45.019 -52,0 2,-94 -94.30859,0 1.1289,-53.87127 -50.53067,-0.73614 -0.26944,-184.25204 99.98566,-0.35733 0.0261,53.50443 43.19511,-0.45685 -0.58136,45.79915 102.36017,0.1396 0,-44.76758 -51,0 0,-54.12891 144.20508,-0.91211 1.79492,50.79102 45.9668,0.75 0.5332,50 51,0 0.5332,-50 91.9668,0 0,147.5 96,0 0,44.00003 44.0586,2 -0.21094,86.1699 54.15234,0.8301 0,-230.9805 101.49996,-0.51953 0.5117,-161.5 187.9883,0 0,36 50.5723,1.42968 1.4277,104.57032 312,0 0,38 96,0 -3,49 -45.6836,0 -1.3164,51 98.6133,-1.30274 3.6367,-49.46679 40.75,-2.25 0,-46.98047 58,0 0.8985,49.43945 393.0977,0.58399 -3,122.97659 -290.1056,-0.4649 2.2469,45.9839 288.0285,-1.9828 0.8302,99.4638 -96.0176,0 0.5176,95.5 197.0039,0.5 0.6406,49 47.3555,0 0.5,46.3183 94,1.957 0.8302,-52.577 -45.3397,0 0.3207,-50.3586 91.5833,0.2423 0.6055,54.418 46,0 0,93.9863 -144.5,0.5137 -0.5313,48.6692 -92.4687,0.5196 -0.541,44.6509 -333.9045,0.2851 -0.2498,-167.5514 45.8865,0.4866 -2.2225,-146.4253 -47.4649,-0.6347 0,-50.5 -158,0 0,-45 -48.1698,-0.8302 -0.8302,-43.4413 -99,0.9336 -0.8574,-48.2696 -142.3586,-5.0351 -0.303,-45.28398 -46.481,0.92655 0,-45 -148,0 0,97.12503 -50,-0.125 0,44 -46,0 0,50 46,0 2,38.5 -130.7129,1.5 -0.7656,51 -54.5215,0 0,49 -48.397,-0.4198 -0.7788,47.4198 -183.82416,0 0,50 48,0 0,48 48.00001,0 0,47 48.99995,0 0,-47 194,0 0,49 -150,1 0,42 155,0 -2.8574,48.7148 -50.1426,3.2852 0,45 95,0 0,-46.9629 48.5,-0.5371 0.5352,-49.5 97.1718,0 -1.4785,-92 493.1621,7.0429 3.3946,177.5156 176.7149,1.9122 0.9355,49.9882 197.0645,0.5215 2.5,116.0176 88.5,3 0,49 50,0 2.916,94 52.7441,0 0.9395,47.457 47.4383,-0.5958 -0.8302,-92.8612 -49.2077,0 2,-102 323.5293,0.6445 0.4687,77.3555 46.3397,0.6509 -0.6835,-850.28444 -53.6562,-0.86645 -0.3008,-91.43554 -47.6972,-0.0918 -2.2168,-51.97266 -134.7832,-4 -1,-88.86914 -102,-1.88476 0,-45.2461 -138,-1 -2,-50 -241,0 -0.461,-55.83317 -153.5391,1.6906 -1.3739,-47.80498 -139.8856,0.32731 -0.4905,50.71009 -96.25,0.17578 0,47.73437 -196.5,0.18946 -0.5195,-93.18946 -51.9805,0 -2,-102 -333,0 0,48 -94,0 0,47.5 -649.99996,0 0,-47.5 -94,0 0,-46.08007 -139.00195,0.58007 0,-95.5 234,0 0,-48 645.00001,0 0,45.14063 529.1523,-6.62109 2.3477,55.98046 50.5,0.53516 0,-48.09961 -50.7093,1.0583 0.7615,-367.5387458 -1606.052201,4.5449 -0.012,2526.9999858 3197.000001,0 z M 1127.2479,889.23994 l -91.2405,0.75566 0.1268,236.6603 46.6933,0 0.5196,-93.5 44.5,-0.5371 z m -648.90084,75.91601 -0.51953,92.49995 94.01953,0 0,42.9668 51.5,0.5332 -0.0723,-91.4062 -48.42579,-0.5938 -0.50195,-43.99995 z m 239.5,88.49995 0,50 49,0 0,-50 z m 141.42793,99.6348 -44.66845,0.035 0.92607,44.6836 44.81445,0.1464 z m -237.42793,95.5078 0,49.3594 239,0.5898 0,-49.9492 z m 184,140.8613 0,50 52,0 0,-50 z m -97.85108,76.0216 0,67.0741 -0.53173,71.3145 48.05664,0.025 -0.67578,52.5645 49,0 0,-49.0899 93.67969,-2.543 -1.96485,145.6329 97.28516,-0.061 1,43.0605 291.99999,0.5 0,50.5 92.6367,-0.7734 0.3653,97.0996 99,0.6855 48,1.9883 0,48 48,0 0,-50 -5.4395,-47.623 -39.5605,2.623 -42,0 0,-246.002 -57,0 0,94 -92,0 -3.75,-43.3574 -93.25,-0.6426 0,-45 -99.5,-2 -2.5,-48 -47.3926,-1.58 -0.6074,-45.42 -95.00004,0 0,-49 -47,0 0,49 -145,0 0.16035,-47.3207 -44.92793,-0.6793 -1.17578,-45.3417 z m 929.35112,19.4784 -0.5332,53.5 98.0332,0 1.4648,-53.25 z m -102.1836,44.1739 -0.1543,40.7402 43.8183,-0.6641 0,-38.6269 z m 234.6836,28.2851 0,94.041 -49.3184,0 1.3184,91 48.0644,0 0.1953,176 239.7403,0 0,45 51,0 0,-46.6718 91.5392,-3.703 0.1401,48.3014 47.3397,0.7337 0.8301,-49 -43.6508,-0.7416 2.8017,-95.9187 -50.5762,0 0.1504,-41.457 -168.5742,-3.543 3,-72.8886 -128.5,-0.8184 -4,-139.793 z m -145,145.041 0,47 46,0 0,-47 z m -964.00004,50 0,47 49,0 0,-47 z m 916.00004,45 0,48 50,0 0,-48 z m -872.94416,14.5723 1.94412,82.4277 42.30469,0 0,-82.4277 z m 143.94412,34.4277 0,46.9649 50.75,0.8027 1.25,-47.7676 z m 1408.00004,18 3,49.9551 40.25,0.8184 2.75,-50.7735 z m -1312.00004,78 0,48 52,0 0,-48 z m 778.00004,0 0,51 48,0 0,-51 z m 629,20 0,47 49,0 0,-47 z m -753,72.9805 0.1543,46.0195 98.414,0.42 0.9317,-45.92 z m -606.25004,3.0098 -236.75,0.01 0,47 238,-0.2403 z m 132.39254,31.1523 -92.6425,2.3555 -0.5352,50.5 94.1895,-1.1738 1.8554,38.1425 48.959,-0.8339 0.1738,-46.8477 -49.2461,-2.809 z m -460.64254,5.8555 -0.26376,45.8491 49.69736,0 0.5664,-45.8491 z"
       id="path3351"
       inkscape:connector-curvature="0"
       sodipodi:nodetypes="cccccccccccccccccccccccccccccccccccccccccccccccccccccccccccccccccccccccccccccccccccccccccccccccccccccccccccccccccccccccccccccccccccccccccccccccccccccccccccccccccccccccccccccccccccccccccccccccccccccccccccccccccccccccccccccccccccccccccccccccccccccccccccccccccccccccccccccccccccccccccccccccccccccccccccccccccccccccccccccccccccccccccccccccccccccccccccccccccccccccccccccccccccccccccccccccccccccccccccccccccccccccccccccccccccccccccccccccccccccccccccccccccccccccccccccccccccccccccccccccccccc" />
  </g>
</svg>
