<?xml version="1.0" encoding="UTF-8" standalone="no"?>
<!-- Created with Inkscape (http://www.inkscape.org/) -->

<svg
   xmlns:dc="http://purl.org/dc/elements/1.1/"
   xmlns:cc="http://creativecommons.org/ns#"
   xmlns:rdf="http://www.w3.org/1999/02/22-rdf-syntax-ns#"
   xmlns:svg="http://www.w3.org/2000/svg"
   xmlns="http://www.w3.org/2000/svg"
   xmlns:sodipodi="http://sodipodi.sourceforge.net/DTD/sodipodi-0.dtd"
   xmlns:inkscape="http://www.inkscape.org/namespaces/inkscape"
   width="210mm"
   height="297mm"
   viewBox="0 0 744.09448819 1052.3622047"
   id="svg2"
   version="1.1"
   inkscape:version="0.91 r13725"
   sodipodi:docname="LevelSVG.svg">
  <defs
     id="defs4" />
  <sodipodi:namedview
     id="base"
     pagecolor="#ffffff"
     bordercolor="#666666"
     borderopacity="1.0"
     inkscape:pageopacity="0.0"
     inkscape:pageshadow="2"
     inkscape:zoom="0.21293945"
     inkscape:cx="549.19107"
     inkscape:cy="1728.0183"
     inkscape:document-units="px"
     inkscape:current-layer="layer1"
     showgrid="false"
     inkscape:window-width="1536"
     inkscape:window-height="798"
     inkscape:window-x="-8"
     inkscape:window-y="-8"
     inkscape:window-maximized="1" />
  <metadata
     id="metadata7">
    <rdf:RDF>
      <cc:Work
         rdf:about="">
        <dc:format>image/svg+xml</dc:format>
        <dc:type
           rdf:resource="http://purl.org/dc/dcmitype/StillImage" />
        <dc:title />
      </cc:Work>
    </rdf:RDF>
  </metadata>
  <g
     inkscape:label="Layer 1"
     inkscape:groupmode="layer"
     id="layer1">
    <path
       id="path3351"
       style="fill:#000000"
       d="m 1249.8343,-2065.5126 2.3476,318.6953 -188.9999,0 0,51.5 132.75,0.021 2.3789,45.8047 53.539,2.0058 1.3867,99.668 -45.0547,0 2.291,88 242.709,2.459 2,94.541 40.2871,0 1.8711,96.334 142.4902,0.3379 2.3516,50.3281 97.9258,4.1582 0.3965,131.7578 45.6777,2.4492 -1.0098,1107.593814 -46.9902,-1.334 0,104.375006 138.0059,-0.2578 0,57.37499 -157.9903,-1.0762 -1.0097,43.959 -93,0 0,-87.99999 -53,0 -2.0039,86.99999 -163.166,0 0.3086,-91.24999 -140.1426,-1.75 0,-94.000006 -287.99994,-1.3282 -2.4903,-45.6718004 -43.5097,-1 -3,134.0000064 -124,0 -1,-90.000006 -295,0 2.209,92.263606 198.791,0.5352 0,51.01559 -279.7031,0.2364 -1.4571,-85.05079 -192.83981,0 0,-50.000006 -46,0 0,-52.0000004 -195.9433713,0.6094 -1.05664,193.3905964 -92.3183617,-0.3223 -0.002,47.1777 -52.214837,1.4375 0.69336,-100.29289 -94.16016,0 0,50.99999 -188.98047,0 -0.51953,-94.499993 -53.5,-0.5332 -1.14258,137.175793 -126.85748,1.3574 1,-1.5 -0.5,-89.99999 49.5,0 0,-44.000003 -48.6797,-0.7852 -0.8203,-138.216767 46.6426,-1.64453 2.8574,-47.35742 -48.5058,-1.36328 -2.084,-51.78125 -95.4102,-0.85547 0,-49 -93.96484,0 -0.5352,-49.5 -148.00003,-7.5 -1.5,-83.84179 52.00003,-4.1543 0,-44.7442 101,1.8829 0,45.8613 -49.6582,0 0.8203,49.01953 91.33794,-0.51953 2.5,-47.2988 44.832,-0.1211 0.6719,-48.0821 90.5,-0.998 54,1 0,-55 -48,0 0,-43 -89.5,0 1.1738,-76.959 138.3262,0.959 0,-46 -48,0 -3,-75.4981 -93,-1.373 0,-145.127 -96.00004,0 0,-45 -44.8789,0 -0.6211,45.002 -95.5,0 -0.096,-139.99995 43.666,-0.5703 1.4278,47.57025 99,0 0,-49.99995 -52,0 2,-94.00006 -94.3086,0 1.1289,-52.2109 -55.51174,-2.3965 9.69331,-190.8926 95.00393,6.2832 -4.927,95.3862 49.927,3.6001 100.00004,0 0,-44.7676 -51.00004,0 0,-54.1289 144.20514,-0.9121 1.7949,50.791 45.9668,0.75 0.5332,50 51,0 0.5332,-50 91.96687,0 0,147.5 96,0 0,44 44.0586,2 3.9414,87.00006 50,0 0,-230.98046 101.5,-0.5196 0.51172,-161.5 187.988279,0 0,36 50.57227,1.4297 1.42773,104.5703 312.000011,0 0,38 96,0 -3,49 -45.6836,0 -1.3164,51 98.6133,-1.3027 3.6367,-49.4668 40.75,-2.25 0,-46.9805 58,0 0.8984,49.4395 393.09774,0.584 -3,122.9766 -290.10554,-0.4648 -4.3945,50.96476 295.50004,0.5079 0,91.99205 -96.01764,0 0.5176,95.5 197.00394,0.5 0.6406,49 47.3555,0 0.5,46.3184 93.9999,1.957 0,-44.2754 -47,0 -3,-57 97.3945,-1.4179 0.6055,54.4179 46,0 0,93.9864 -144.5,0.5136 -0.5313,54.4805 -92.4686,0.5195 -0.541,40.5 -332.24424,0.2852 -3.5703,-162.5703 48.377,-2.0039 -3.0528,-150.5762 -47.4648,-0.6348 0,-50.5 -158,0 0,-44.99995 -49,0 0,-44.2714 -98.9996,0.9336 -0.8574,-48.26956 -149,-5.0352 1.3574,-38.6425 -41.49999,-5.7149 0,-45 -147.99997,0 0,97.125 -50.000001,-0.125 0,44.00006 -46,0 0,50 46,0 2,38.49995 -130.71289,1.5 -0.76562,51 -54.521492,0 0,49 -43.416007,-1.25 -5.75977,48.25 -183.82422,0 0,50 48,0 0,48 48,0 0,47 49,0 0,-47 193.999999,0 0,49 -149.999999,1 0,42 154.999999,0 -2.85742,48.7149 -50.14258,3.2851 0,45 95,0 0,-46.9629 48.500001,-0.5371 0.53516,-49.5 97.17188,0 -1.47851,-92 483.77143,0 12.7852,184.5586 176.7148,1.9121 0.9356,49.9883 197.06444,0.5215 2.5,116.01758 88.5,3 0,49 49.9999,0 2.9161,94 52.7441,0 0.9394,47.45703 57.4004,0.23437 0,-93.6914 -60,0 2,-102 323.5293,0.64453 0.4688,77.35547 48,-3.5 0,-845.49999 -56,-1.5 -0.3008,-91.4356 -47.6973,-0.092 -2.2168,-51.9726 -134.7832,-4 -1,-88.8692 -102,-1.8847 0,-45.2461 -137.9999,-1 -2,-50 -241.00004,0 -0.4609,-45.8711 -153.5391,-8.2715 -4.5175,-45.3145 -139.2325,2.3418 2,46.2051 -96.25,0.1758 0,47.7344 -196.5,0.1894 -0.5195,-93.1894 -51.98045,0 -2,-102 -333.000013,0 0,48 -93.999997,0 0,47.5 -650.00006,0 0,-47.5 -94,0 0,-46.0801 -139.00194,0.5801 0,-95.5 234.00004,0 0,-48 645.00001,0 0,45.1406 529.15231,-6.6211 2.3477,55.9805 50.5,0.5351 0,-48.0996 4.8437,-366.4805 -1660.84376,4.5449 0,1263.50011 -0.01,0 0,1263.5 3197,0 0,-2527.00001 z m -1357.3945,891.2793 -88.75,2.416 0.87305,130.25 0.91406,104.75006 46.69336,0 0.51953,-93.50006 44.5,-0.5371 z m -644.75002,75.916 -0.5195,92.5001 94.0195,0 0,42.96676 51.5,0.5332 -0.072,-91.40636 -48.4258,-0.5937 -0.502,-44 z m 239.50002,88.5001 0,49.99996 49,0 0,-49.99996 z m 139.76758,99.63461 -40.51758,0.037 -1.56445,44.6836 44.81445,0.1465 z m 3.23242,95.5078 -239.00002,0 0,49.3594 239.00002,0.5899 z m -55,140.8614 0,50 52,0 0,-50 z m -102.00195,75.1914 0,67.9043 5.28125,69.6543 46.39453,1.6855 -0.67578,52.5645 49,0 0,-49.0899 93.67969,-2.5429 -1.96485,145.63278 97.28516,-0.0606 1,43.06055 291.999999,0.5 0,50.5 48.000001,0 44.63673,-0.77344 0.36523,97.09961 99,0.68555 47.99996,1.98828 0,48 47.99999,0 0,-50 -5.43994,-47.62296 -39.56005,2.62296 -41.99996,0 0,-246.00003 -57,0 0,94 -92.00001,0 -3.75,-43.3593 -93.250001,-0.6407 0,-45 -99.500002,-2 -2.5,-48 -47.392577,-1.582 -0.60742,-45.418 -95,0 0,-49 -47,0 0,49 -145,0 -1.5,-44 -43.26758,-4 -1.17578,-45.3418 z m 933.50191,20.3086 -0.5332,53.5 98.0332,0 1.4649,-53.25 z m -102.1836,44.1738 -0.1543,40.7402 43.8184,-0.664 0,-38.627 z m 234.6836,28.2852 0,94.041 -49.3183,0 1.3183,91 48.0645,0 0.1953,175.99998 239.7402,0 0,45 51,0 0,-53.71484 90.709,1.67968 4.291,43.32032 49,5.71484 0,-49 5.67705,-94.4617 -50.67705,-0.5383 -50.5761,0 0.1504,-41.45703 -168.5743,-3.54297 3,-72.88868 -128.5,-0.8184 -4,-139.7929 z m -145,145.041 0,46.99998 46,0 0,-46.99998 z m -963.99998,49.99998 0,47 49.00002,0 0,-47 z m 915.99998,45 0,48 50,0 0,-48 z m -866.30379,31.17702 -4.69617,65.82298 42.30383,0 0,-65.82298 z m 137.30383,17.82298 0,46.96484 50.75,0.80274 1.25,-47.76758 z m 1408,18 3,49.95508 40.25,0.81836 2.75,-50.77344 z m -1312,78 0,48 52,0 0,-48 z m 777.99996,0 0,51 48,0 0,-51 z m 629.00004,20 0,47 49,0 0,-47 z m -753.00004,72.980474 0.1543,46.01955 95.9239,1.25 3.4218,-46.75002 z m -606.24996,3.00977 -236.75,0.01 0,46.99998 238,-0.2403 z m 132.39258,31.1523796 -92.64258,2.3554 -0.53515,50.5000004 94.18945,-1.1738 1.85547,38.142603 48.958977,-0.834 0.17383,-46.847703 z m -460.6426,5.8554004 0.5664,50.000001 48.86722,0 0.5664,-50.000001 z"
       inkscape:connector-curvature="0"
       sodipodi:nodetypes="ccccccccccccccccccccccccccccccccccccccccccccccccccccccccccccccccccccccccccccccccccccccccccccccccccccccccccccccccccccccccccccccccccccccccccccccccccccccccccccccccccccccccccccccccccccccccccccccccccccccccccccccccccccccccccccccccccccccccccccccccccccccccccccccccccccccccccccccccccccccccccccccccccccccccccccccccccccccccccccccccccccccccccccccccccccccccccccccccccccccccccccccccccccccccccccccccccccccccccccccccccccccccccccccccccccccccccccccccccccccccccccccccccccccccccccccccccccccccccccccccccc" />
  </g>
</svg>
