<?xml version="1.0" encoding="UTF-8" standalone="no"?>
<!-- Created with Inkscape (http://www.inkscape.org/) -->

<svg
   xmlns:dc="http://purl.org/dc/elements/1.1/"
   xmlns:cc="http://creativecommons.org/ns#"
   xmlns:rdf="http://www.w3.org/1999/02/22-rdf-syntax-ns#"
   xmlns:svg="http://www.w3.org/2000/svg"
   xmlns="http://www.w3.org/2000/svg"
   xmlns:sodipodi="http://sodipodi.sourceforge.net/DTD/sodipodi-0.dtd"
   xmlns:inkscape="http://www.inkscape.org/namespaces/inkscape"
   width="210mm"
   height="297mm"
   viewBox="0 0 744.09448819 1052.3622047"
   id="svg2"
   version="1.1"
   inkscape:version="0.91 r13725"
   sodipodi:docname="LevelSVG.svg">
  <defs
     id="defs4" />
  <sodipodi:namedview
     id="base"
     pagecolor="#ffffff"
     bordercolor="#666666"
     borderopacity="1.0"
     inkscape:pageopacity="0.0"
     inkscape:pageshadow="2"
     inkscape:zoom="0.30114186"
     inkscape:cx="195.18214"
     inkscape:cy="496.1309"
     inkscape:document-units="px"
     inkscape:current-layer="layer1"
     showgrid="false"
     inkscape:window-width="1536"
     inkscape:window-height="798"
     inkscape:window-x="-8"
     inkscape:window-y="-8"
     inkscape:window-maximized="1" />
  <metadata
     id="metadata7">
    <rdf:RDF>
      <cc:Work
         rdf:about="">
        <dc:format>image/svg+xml</dc:format>
        <dc:type
           rdf:resource="http://purl.org/dc/dcmitype/StillImage" />
        <dc:title />
      </cc:Work>
    </rdf:RDF>
  </metadata>
  <g
     inkscape:label="Layer 1"
     inkscape:groupmode="layer"
     id="layer1">
    <path
       style="fill:#000000"
       d="m 3196.8334,-2.3244858 -716.3418,0.2851 2.3477,318.6953358 -189,0 0,51.5 132.75,0.0195 2.3789,45.80469 53.539,2.00586 1.3868,99.66797 -45.0547,0 2.291,88 242.709,2.45898 2,94.54102 40.2871,0 1.8711,96.33398 142.4902,0.33789 2.3516,50.32813 97.9258,4.1582 0.3964,131.75781 45.6778,2.44922 -1.0098,1107.5937 -46.9902,-1.3339 0,104.375 138.0058,-0.2578 0,57.375 -157.9902,-1.0762 -1.0098,43.959 -93,0 0,-88 -53,0 -2.0039,87 -163.166,0 0.3086,-91.25 -140.1426,-1.75 0,-94 -288,-1.3282 -2.4902,-45.6718 -43.5098,-1 -3,134 -124,0 -1,-90 -295,0 2.209,92.2637 198.791,0.5351 0,51.0156 -279.7031,0.2364 -1.4571,-85.0508 -192.8398,0 0,-50 -46,0 0,-52 -195.9434,0.6093 -1.0566,193.3907 -92.3184,-0.3223 0,47.1777 -52.2148,1.4375 0.6934,-100.2929 -94.16019,0 0,51 -188.98048,0 -0.51953,-94.5 -53.5,-0.5332 -1.14258,137.1758 -126.85742,1.3574 0.5,-91.5 49.5,0 0,-44 -48.67969,-0.7852 -0.82031,-138.2168 46.64258,-1.6445 2.85742,-47.3575 -48.50586,-1.3632 -2.08399,-51.7813 -95.41015,-0.8555 0,-49 -93.96485,0 -0.53515,-49.5 -148,-7.5 -1.5,-83.8417 52,-4.1543 0,-44.7442 101,1.8828 0,45.8614 -49.6582,0 0.82031,49.0195 91.33789,-0.5195 2.5,-47.2989 44.83203,-0.1211 0.67188,-48.082 144.5,0 0,-55 -48,0 0,-43 -89.5,0 1.17382,-76.959 138.32618,0.959 0,-46 -48,0 -3,-75.4981 -93,-1.373 0,-145.127 -96,0 0,-45 -44.87891,0 -0.62109,45.002 -95.5,0 -0.0957,-140 43.66602,-0.5703 1.42773,47.5703 99,0 0,-50 -52,0 2,-94 -94.30859,0 1.1289,-52.21092 -55.51171,-2.39649 -1.09961,-183.42187 105.79687,-1.1875 5.0332,97.87695 139.9668,1.10938 0,-44.76758 -51,0 0,-54.12891 144.20508,-0.91211 1.79492,50.79102 45.9668,0.75 0.5332,50 51,0 0.5332,-50 91.9668,0 0,147.5 96,0 0,44.00003 44.0586,2 -0.21094,86.1699 54.15234,0.8301 0,-230.9805 101.49998,-0.51953 0.5117,-161.5 187.9883,0 0,36 50.5723,1.42968 1.4277,104.57032 312,0 0,38 96,0 -3,49 -45.6836,0 -1.3164,51 98.6133,-1.30274 3.6367,-49.46679 40.75,-2.25 0,-46.98047 58,0 0.8985,49.43945 393.0977,0.58399 -3,122.97659 -290.1056,-0.4649 -4.3945,50.9649 295.5001,0.5078 0,91.9922 -96.0176,0 0.5176,95.5 197.0039,0.5 0.6406,49 47.3555,0 0.5,46.3183 94,1.957 0,-44.2753 -47,0 -3,-57 97.3945,-1.418 0.6055,54.418 46,0 0,93.9863 -144.5,0.5137 -0.5313,54.4804 -92.4687,0.5196 -0.541,40.5 -332.2442,0.2851 -3.5704,-162.5703 48.377,-2.0039 -3.0527,-150.5762 -47.4649,-0.6347 0,-50.5 -158,0 0,-45 -42.3586,-3.3207 -6.6414,-40.9508 -99,0.9336 -0.8574,-48.2696 -149,-5.0351 1.3574,-38.64259 -41.5,-5.71484 0,-45 -148,0 0,97.12503 -50,-0.125 0,44 -46,0 0,50 46,0 2,38.5 -130.7129,1.5 -0.7656,51 -54.5215,0 0,49 -43.416,-1.25 -5.7598,48.25 -183.82418,0 0,50 48,0 0,48 48.00001,0 0,47 48.99997,0 0,-47 194,0 0,49 -150,1 0,42 155,0 -2.8574,48.7148 -50.1426,3.2852 0,45 95,0 0,-46.9629 48.5,-0.5371 0.5352,-49.5 97.1718,0 -1.4785,-92 493.1621,7.0429 3.3946,177.5156 176.7149,1.9122 0.9355,49.9882 197.0645,0.5215 2.5,116.0176 88.5,3 0,49 50,0 2.916,94 52.7441,0 0.9395,47.457 57.4004,0.2344 0,-93.6914 -60,0 2,-102 323.5293,0.6445 0.4687,77.3555 48,-3.5 0,-845.49999 -56,-1.5 -0.3008,-91.43554 -47.6972,-0.0918 -2.2168,-51.97266 -134.7832,-4 -1,-88.86914 -102,-1.88476 0,-45.2461 -138,-1 -2,-50 -241,0 -0.461,-45.87109 -153.5391,-8.27148 -4.5176,-45.31446 -139.2324,2.3418 2,46.20508 -96.25,0.17578 0,47.73437 -196.5,0.18946 -0.5195,-93.18946 -51.9805,0 -2,-102 -333,0 0,48 -94,0 0,47.5 -649.99998,0 0,-47.5 -94,0 0,-46.08007 -139.00195,0.58007 0,-95.5 234,0 0,-48 645.00003,0 0,45.14063 529.1523,-6.62109 2.3477,55.98046 50.5,0.53516 0,-48.09961 4.8437,-366.4804458 -1660.843721,4.5449 -0.012,2526.9999858 3197.000021,0 z M 1123.0971,889.23994 l -88.75,2.41601 0.873,130.24995 0.9141,104.75 46.6933,0 0.5196,-93.5 44.5,-0.5371 z m -644.75004,75.91601 -0.51953,92.49995 94.01953,0 0,42.9668 51.5,0.5332 -0.0723,-91.4062 -48.42579,-0.5938 -0.50195,-43.99995 z m 239.5,88.49995 0,50 49,0 0,-50 z m 139.76758,99.6348 -40.51758,0.035 -1.56445,44.6836 44.81445,0.1464 z m -235.76758,95.5078 0,49.3594 239,0.5898 0,-49.9492 z m 184,140.8613 0,50 52,0 0,-50 z m -102.00195,75.1914 0,67.9043 3.61914,71.3145 48.05664,0.025 -0.67578,52.5645 49,0 0,-49.0899 93.67969,-2.543 -1.96485,145.6329 97.28516,-0.061 1,43.0605 291.99999,0.5 0,50.5 92.6367,-0.7734 0.3653,97.0996 99,0.6855 48,1.9883 0,48 48,0 0,-50 -5.4395,-47.623 -39.5605,2.623 -42,0 0,-246.002 -57,0 0,94 -92,0 -3.75,-43.3574 -93.25,-0.6426 0,-45 -99.5,-2 -2.5,-48 -47.3926,-1.58 -0.6074,-45.42 -95.00004,0 0,-49 -47,0 0,49 -145,0 -1.5,-44 -43.26758,-4 -1.17578,-45.3417 z m 933.50199,20.3086 -0.5332,53.5 98.0332,0 1.4648,-53.25 z m -102.1836,44.1739 -0.1543,40.7402 43.8183,-0.6641 0,-38.6269 z m 234.6836,28.2851 0,94.041 -49.3184,0 1.3184,91 48.0644,0 0.1953,176 239.7403,0 0,45 51,0 0,-46.6718 90.709,-5.3633 0.9703,49.9617 52.3207,-0.9266 0,-49 5.6777,-94.4628 -50.6777,-0.5372 -50.5762,0 0.1504,-41.457 -168.5742,-3.543 3,-72.8886 -128.5,-0.8184 -4,-139.793 z m -145,145.041 0,47 46,0 0,-47 z m -964.00004,50 0,47 49,0 0,-47 z m 916.00004,45 0,48 50,0 0,-48 z m -866.30277,31.1758 -4.69727,65.8242 42.30469,0 0,-65.8242 z m 137.30273,17.8242 0,46.9649 50.75,0.8027 1.25,-47.7676 z m 1408.00004,18 3,49.9551 40.25,0.8184 2.75,-50.7735 z m -1312.00004,78 0,48 52,0 0,-48 z m 778.00004,0 0,51 48,0 0,-51 z m 629,20 0,47 49,0 0,-47 z m -753,72.9805 0.1543,46.0195 98.414,0.42 0.9317,-45.92 z m -606.25004,3.0098 -236.75,0.01 0,47 238,-0.2403 z m 132.39254,31.1523 -92.6425,2.3555 -0.5352,50.5 94.1895,-1.1738 1.8554,38.1425 48.959,-0.8339 0.1738,-46.8477 -49.2461,-2.809 z m -460.64254,5.8555 0.56641,50 48.86719,0 0.5664,-50 z"
       id="path3351"
       inkscape:connector-curvature="0"
       sodipodi:nodetypes="cccccccccccccccccccccccccccccccccccccccccccccccccccccccccccccccccccccccccccccccccccccccccccccccccccccccccccccccccccccccccccccccccccccccccccccccccccccccccccccccccccccccccccccccccccccccccccccccccccccccccccccccccccccccccccccccccccccccccccccccccccccccccccccccccccccccccccccccccccccccccccccccccccccccccccccccccccccccccccccccccccccccccccccccccccccccccccccccccccccccccccccccccccccccccccccccccccccccccccccccccccccccccccccccccccccccccccccccccccccccccccccccccccccccccccccccccccccccccccccc" />
  </g>
</svg>
